<svg xmlns="http://www.w3.org/2000/svg" xmlns:xlink="http://www.w3.org/1999/xlink" viewBox="-20 -20 40 30">
  <defs/>
  <g>
    <path stroke="none" fill="#000" d="M8.7 -24.9 L11.45 -24.6 11.5 -24.55 Q13 -23.95 13.65 -22.6 L13.7 -22.5 Q14.35 -21 13.7 -19.5 L4.1 2.45 4.05 2.55 Q3.5 3.65 2.4 4.3 L2.35 4.35 Q1.25 5 -0.05 5 -1.25 5 -2.25 4.4 -3.7 3.7 -4.15 2.45 L-4.1 2.45 -13.65 -19.5 -13.7 -19.5 Q-14.35 -21 -13.7 -22.5 L-13.65 -22.6 Q-13 -23.95 -11.5 -24.55 -10.15 -25.2 -8.7 -24.9 L-8.6 -24.9 0 -23.05 8.65 -24.9 8.7 -24.9  "/>
  </g>
</svg>